<?xml version="1.0" encoding="utf-8"?>
<!-- Generator: Adobe Illustrator 19.0.0, SVG Export Plug-In . SVG Version: 6.00 Build 0)  -->
<svg version="1.1"
	 id="svg2" xmlns:svg="http://www.w3.org/2000/svg" xmlns:rdf="http://www.w3.org/1999/02/22-rdf-syntax-ns#" xmlns:cc="http://creativecommons.org/ns#" xmlns:dc="http://purl.org/dc/elements/1.1/"
	 xmlns="http://www.w3.org/2000/svg" xmlns:xlink="http://www.w3.org/1999/xlink" x="0px" y="0px" viewBox="-147 377.3 86.6 86.6"
	 style="enable-background:new -147 377.3 86.6 86.6;" xml:space="preserve">
<style type="text/css">
	.st0{fill:#FFFFFF;}
	.st1{fill:#8BDC01;}
	.st2{fill:#FBA100;}
	.st3{fill:#33AAFF;}
	.st4{fill:#017DFF;}
	.st5{fill:#FDE012;}
	.st6{fill:#47B41B;}
</style>
<g id="g10" transform="matrix(1.25,0,0,-1.25,-356.2181,895.7297)">
	<g id="g670" transform="matrix(1.8300314,0,0,1.8300314,-336.14156,-566.03538)">
		<g>
			<g id="g672">
				<g id="g678" transform="translate(358.3301,681.9383)">
					<path id="path680" class="st0" d="M-64.3-164.9l-5.3,5.3l-0.2,0.2c-3.1,3.1-8,3.1-11.1,0c-3.1-3.1-3.1-8,0-11.1
						c3.1-3.1,8-3.1,11.1,0L-64.3-164.9z"/>
				</g>
				<g id="g682" transform="translate(358.331,681.9437)">
					<path id="path684" class="st0" d="M-64.3-164.9v-7.6l0-0.3c0-4.3-3.5-7.9-7.8-7.9s-7.8,3.5-7.8,7.8c0,4.3,3.5,7.8,7.8,7.8
						H-64.3z"/>
				</g>
				<g id="g686" transform="translate(358.331,681.9437)">
					<path id="path688" class="st0" d="M-64.3-164.9v-7.6l0-0.3c0-4.3-3.5-7.9-7.8-7.9s-7.8,3.5-7.8,7.8c0,4.3,3.5,7.8,7.8,7.8
						H-64.3z"/>
				</g>
				<g id="g690" transform="translate(358.331,681.9437)">
					<path id="path692" class="st0" d="M-64.3-164.9v-7.6l0-0.3c0-4.3-3.5-7.9-7.8-7.9s-7.8,3.5-7.8,7.8c0,0.5,0,0.9,0.1,1.4
						c3.1-2.1,7.3-1.8,10,0.9L-64.3-164.9L-64.3-164.9z"/>
				</g>
				<g id="g694" transform="translate(350.495,680.948)">
					<path id="path696" class="st1" d="M-64.3-164.9c-3.8,0-6.8-3.1-6.8-6.8c0-3.8,3.1-6.8,6.8-6.8c3.8,0,6.8,3.1,6.8,6.8l0,0.3v6.6
						H-64.3L-64.3-164.9z"/>
				</g>
				<g id="g698" transform="translate(358.3313,681.9446)">
					<path id="path700" class="st0" d="M-64.3-164.9l5.3-5.3l0.2-0.2c3.1-3.1,3.1-8,0-11.1c-3.1-3.1-8-3.1-11.1,0
						c-3.1,3.1-3.1,8,0,11.1L-64.3-164.9z"/>
				</g>
				<g id="g702" transform="translate(353.4945,675.6996)">
					<path id="path704" class="st1" d="M-64.3-164.9c-2.7-2.7-2.7-7,0-9.7c2.7-2.7,7-2.7,9.7,0c2.7,2.7,2.7,7,0,9.7l-0.2,0.2
						l-4.6,4.6L-64.3-164.9L-64.3-164.9z"/>
				</g>
				<g id="g706" transform="translate(358.331,681.9454)">
					<path id="path708" class="st0" d="M-64.3-164.9h7.6l0.3,0c4.3,0,7.9-3.5,7.9-7.8s-3.5-7.8-7.8-7.8s-7.8,3.5-7.8,7.8V-164.9z"/>
				</g>
				<g id="g710" transform="translate(359.3267,674.1094)">
					<path id="path712" class="st1" d="M-64.3-164.9c0-3.8,3.1-6.8,6.8-6.8c3.8,0,6.8,3.1,6.8,6.8s-3.1,6.8-6.8,6.8l-0.3,0h-6.6
						V-164.9L-64.3-164.9z"/>
				</g>
				<g id="g714" transform="translate(358.3302,681.9457)">
					<path id="path716" class="st0" d="M-64.3-164.9l5.3,5.3l0.2,0.2c3.1,3.1,8,3.1,11.1,0c3.1-3.1,3.1-8,0-11.1
						c-3.1-3.1-8-3.1-11.1,0L-64.3-164.9z"/>
				</g>
				<g id="g718" transform="translate(364.5751,677.1089)">
					<path id="path720" class="st1" d="M-64.3-164.9c2.7-2.7,7-2.7,9.7,0c2.7,2.7,2.7,7,0,9.7c-2.7,2.7-7,2.7-9.7,0l-0.2-0.2
						l-4.6-4.6L-64.3-164.9L-64.3-164.9z"/>
				</g>
				<g id="g722" transform="translate(358.3293,681.9454)">
					<path id="path724" class="st0" d="M-64.3-164.9v7.6l0,0.3c0,4.3,3.5,7.9,7.8,7.9s7.8-3.5,7.8-7.8c0-4.3-3.5-7.8-7.8-7.8H-64.3z
						"/>
				</g>
				<g id="g726" transform="translate(366.1653,682.941)">
					<path id="path728" class="st2" d="M-64.3-164.9c3.8,0,6.8,3.1,6.8,6.8c0,3.8-3.1,6.8-6.8,6.8c-3.8,0-6.8-3.1-6.8-6.8l0-0.3
						v-6.6H-64.3L-64.3-164.9z"/>
				</g>
				<g id="g730" transform="translate(358.329,681.9445)">
					<path id="path732" class="st0" d="M-64.3-164.9l-5.3,5.3l-0.2,0.2c-3.1,3.1-3.1,8,0,11.1c3.1,3.1,8,3.1,11.1,0
						c3.1-3.1,3.1-8,0-11.1L-64.3-164.9z"/>
				</g>
				<g id="g734" transform="translate(363.1658,688.1895)">
					<path id="path736" class="st3" d="M-64.3-164.9c2.7,2.7,2.7,7,0,9.7c-2.7,2.7-7,2.7-9.7,0c-2.7-2.7-2.7-7,0-9.7l0.2-0.2
						l4.6-4.6L-64.3-164.9L-64.3-164.9z"/>
				</g>
				<g id="g738" transform="translate(358.3293,681.9437)">
					<path id="path740" class="st0" d="M-64.3-164.9h-7.5l-0.3,0c-4.3,0-7.9,3.5-7.9,7.8c0,4.3,3.5,7.8,7.8,7.8s7.8-3.5,7.8-7.8
						V-164.9z"/>
				</g>
				<g id="g742" transform="translate(357.3336,689.7797)">
					<path id="path744" class="st3" d="M-64.3-164.9c0,3.8-3.1,6.8-6.8,6.8c-3.8,0-6.8-3.1-6.8-6.8c0-3.8,3.1-6.8,6.8-6.8l0.3,0h6.6
						V-164.9L-64.3-164.9z"/>
				</g>
				<g id="g746" transform="translate(358.3302,681.9434)">
					<path id="path748" class="st0" d="M-64.3-164.9l-18.9,0c0,2,0.8,4,2.3,5.5c3.1,3.1,8,3.1,11.1,0L-64.3-164.9z"/>
				</g>
				<g id="g750" transform="translate(352.0852,686.7802)">
					<path id="path752" class="st3" d="M-64.3-164.9l4.8-4.8h-6.4c-3.5,0-6.4-2.3-7.5-5.4c-0.2,0.2-0.4,0.4-0.6,0.6
						c-2.7,2.7-2.7,7,0,9.7C-71.3-162.3-66.9-162.3-64.3-164.9"/>
				</g>
				<g id="g754" transform="translate(352.1013,686.7802)">
					<path id="path756" class="st4" d="M-64.3-164.9l3.8-3.8h-5.1l-0.3,0c-3.1,0-5.8,2.1-6.6,5C-69.9-162.3-66.5-162.7-64.3-164.9
						L-64.3-164.9z"/>
				</g>
				<g id="g758" transform="translate(357.3309,689.7811)">
					<path id="path760" class="st4" d="M-64.3-164.9v-5.4l-3.6,3.6l-0.2,0.2c-2.2,2.2-2.6,5.6-1.1,8.2
						C-66.4-159.1-64.3-161.8-64.3-164.9L-64.3-164.9z"/>
				</g>
				<g id="g762" transform="translate(363.1867,688.1945)">
					<path id="path764" class="st4" d="M-64.3-164.9l-3.8-3.8v5.1l0,0.3c0,3.1,2.1,5.8,5,6.6C-61.7-159.3-62-162.7-64.3-164.9
						L-64.3-164.9z"/>
				</g>
				<g id="g766" transform="translate(366.161,682.9554)">
					<path id="path768" class="st5" d="M-64.3-164.9h-5.4l3.6,3.6l0.2,0.2c2.2,2.2,5.6,2.6,8.2,1.1
						C-58.5-162.8-61.1-164.9-64.3-164.9L-64.3-164.9z"/>
				</g>
				<g id="g770" transform="translate(364.5618,677.1361)">
					<path id="path772" class="st6" d="M-64.3-164.9l-3.8,3.8h5.1l0.3,0c3.1,0,5.8-2.1,6.6-5C-58.7-167.5-62-167.2-64.3-164.9
						L-64.3-164.9z"/>
				</g>
				<g id="g774" transform="translate(359.3424,674.1411)">
					<path id="path776" class="st6" d="M-64.3-164.9v5.4l3.6-3.6l0.2-0.2c2.2-2.2,2.6-5.6,1.1-8.2
						C-62.2-170.7-64.3-168.1-64.3-164.9L-64.3-164.9z"/>
				</g>
				<g id="g778" transform="translate(353.5229,675.6953)">
					<path id="path780" class="st6" d="M-64.3-164.9l3.8,3.8v-5.1l0-0.3c0-3.1-2.1-5.8-5-6.6C-66.9-170.5-66.5-167.2-64.3-164.9
						L-64.3-164.9z"/>
				</g>
				<g id="g782" transform="translate(350.5186,680.9371)">
					<path id="path784" class="st6" d="M-64.3-164.9h5.4l-3.6-3.6l-0.2-0.2c-2.2-2.2-5.6-2.6-8.2-1.1
						C-70.1-167-67.4-164.9-64.3-164.9L-64.3-164.9z"/>
				</g>
			</g>
		</g>
	</g>
</g>
</svg>
