<?xml version="1.0" encoding="utf-8"?>
<!-- Generator: Adobe Illustrator 19.0.0, SVG Export Plug-In . SVG Version: 6.00 Build 0)  -->
<svg version="1.1" id="Layer_1" xmlns="http://www.w3.org/2000/svg" xmlns:xlink="http://www.w3.org/1999/xlink" x="0px" y="0px"
	 viewBox="50.6 329.8 165.9 175.8" style="enable-background:new 50.6 329.8 165.9 175.8;" xml:space="preserve">
<style type="text/css">
	.st0{fill:#B3B3B3;}
	.st1{fill:#A6120D;}
	.st2{fill:#DD1B16;}
	.st3{fill:#F2F2F2;}
</style>
<g>
	<polygon class="st0" points="133.2,329.8 50.6,358.9 63.6,467.2 133.3,505.5 203.4,466.7 216.5,358.4 	"/>
	<polygon class="st1" points="208.2,364.6 133.1,339 133.1,496.4 196,461.5 	"/>
	<polygon class="st2" points="59.8,365.1 71,462 133,496.4 133,339 	"/>
	<path class="st3" d="M153.7,422.8l-20.7,9.7h-21.8L101,458.1l-19.1,0.4l51.1-113.7L153.7,422.8z M151.7,417.9l-18.6-36.7L118,417.3
		H133L151.7,417.9z"/>
	<polygon class="st0" points="133,344.7 133.2,381.2 150.5,417.3 133.1,417.3 133,432.4 157.1,432.4 168.3,458.4 186.5,458.8 	"/>
</g>
</svg>
