<?xml version="1.0" encoding="utf-8"?>
<!-- Generator: Adobe Illustrator 19.0.0, SVG Export Plug-In . SVG Version: 6.00 Build 0)  -->
<svg version="1.1"
	 id="svg2" xmlns:svg="http://www.w3.org/2000/svg" xmlns:rdf="http://www.w3.org/1999/02/22-rdf-syntax-ns#" xmlns:cc="http://creativecommons.org/ns#" xmlns:dc="http://purl.org/dc/elements/1.1/"
	 xmlns="http://www.w3.org/2000/svg" xmlns:xlink="http://www.w3.org/1999/xlink" x="0px" y="0px"
	 viewBox="199.6 169.4 130.2 162.2" style="enable-background:new 199.6 169.4 130.2 162.2;" xml:space="preserve">
<style type="text/css">
	.st0{fill:#002A41;stroke:#848484;}
	.st1{fill:#0071B5;stroke:#848484;}
</style>
<g id="layer1" transform="translate(129.47008,-1148.7329)">
	<g id="Page_1" transform="matrix(0.17893165,0,0,0.17893165,-129.37356,1149.0013)">
		<g id="BackBone.JS">
			<path id="Path" class="st0" d="M1117.7,950.1v485l361,205.8V1501l-241.5-137.7v-216.2l241.5,137.7v-128.9L1117.7,950.1z"/>
			<path id="path2996" class="st1" d="M1839.7,950.1v485l-361,205.8V1501l241.5-137.7v-216.2l-241.5,137.7v-128.9L1839.7,950.1z"/>
			<path id="path2998" class="st1" d="M1117.7,1846.9v-485l361-205.8V1296l-241.5,137.7v205.2l241.5-137.7v139.9L1117.7,1846.9z"/>
			<path id="path3000" class="st0" d="M1839.7,1846.9v-485l-361-205.8V1296l241.5,137.7v205.2l-241.5-137.7v139.9L1839.7,1846.9z"/>
		</g>
	</g>
</g>
</svg>
