<?xml version="1.0" encoding="utf-8"?>
<!-- Generator: Adobe Illustrator 19.0.0, SVG Export Plug-In . SVG Version: 6.00 Build 0)  -->
<svg version="1.1" id="Layer_1" xmlns="http://www.w3.org/2000/svg" xmlns:xlink="http://www.w3.org/1999/xlink" x="0px" y="0px"
	 viewBox="-137 289.6 320.8 263.3" style="enable-background:new -137 289.6 320.8 263.3;" xml:space="preserve">
<style type="text/css">
	.st0{fill:#FFFFFF;}
	.st1{fill:#4D4C4D;}
	.st2{fill:#72CEEA;}
</style>
<g>
	<g>
		<g>
			<g>
				<path class="st0" d="M-5,544.9c-33.7,0-66.6-14.4-90.2-39.5c-23.8-25.2-35.7-58.1-33.6-92.5c1.3-22.2,8.6-43.5,21-61.7
					c11.6-17,27.4-31,45.6-40.3c13-6.7,28.5-11,44.8-12.5c2.3-0.2,9.6-0.8,16.2-0.8c2,0,3.9,0.1,5.4,0.2
					c35.1,2.4,67.6,20.5,89.1,49.8c0.6,0.8,1.2,1.6,1.9,2.6c6.2,8.2,15.7,20.7,13.5,32.7c-1.8,9.9-14.9,16.7-30.5,23.9
					c-2.4,1.1-4.4,2-5.6,2.7c-14.5,7.7-28.1,14.8-41.3,21.6c-14.4,7.5-29.4,15.2-45.3,23.8c-0.9,0.5-1.8,1-2.7,1.5
					c-5.1,2.9-11.4,6.5-19.3,6.5c-0.5,0-0.9,0-1.4,0c-7.8-0.4-14.7-3.9-19.6-10c-5-6.2-7.2-14.4-5.9-22.5
					c2.1-13.2,13.3-18.9,22.2-23.5c1-0.5,1.9-1,2.9-1.5c10.8-5.7,20.7-10.8,30.3-15.8c11-5.7,22.4-11.6,35.5-18.5
					c0.4-0.2,0.8-0.4,1.2-0.6c0.9-0.5,2.7-1.4,4.2-2.3c-1.6-1.3-4.7-3.2-10.6-6l-0.2-0.1c-8.6-4-17.6-6-26.7-6
					c-26.3-0.3-47.9,16-56.9,31.1c-9.7,16.2-11.6,39.9-4.7,57.6c7.8,20,27.6,41.4,59.6,41.4c3.9,0,8-0.3,12.1-1
					c31.2-5,44.3-28.9,47.5-36.1c1.6-3.5,2.7-7.3,3.9-11c3.5-11.5,7.9-25.8,26.3-28c1.2-0.1,2.4-0.2,3.6-0.2
					c14.3,0,26.7,10.4,29,24.3c1.7,10.1-2.8,22.9-6.3,31.6c-11.7,29.2-35,54.3-62.2,67.1C30.9,540.8,13.1,544.9-5,544.9L-5,544.9z"
					/>
				<path class="st1" d="M-1.2,305.5c1.7,0,3.4,0,4.9,0.1c36,2.4,65.2,22.1,83.2,46.6c5.1,7,15.7,19.4,14,29.1
					c-1.5,8.4-25,17.2-32,21c-30.3,16.2-56.1,29-86.7,45.4c-5.6,3-11.2,7-18.2,7c-0.3,0-0.6,0-1,0c-11.8-0.6-19.9-11.5-18-23.3
					c1.6-10.3,11.9-14.4,21-19.2c23.1-12.2,41.2-21.3,65.8-34.3c3.5-1.8,10.7-5.2,11.1-8.7c0.6-6.6-12.1-12.4-16.9-14.5
					C15.9,350,5.7,348-4,348c-27.9,0-52.5,16.5-63.7,35.2c-10.2,17.1-13.5,43.5-5.2,64.6c9.2,23.7,32.4,46.5,67,46.5
					c4.3,0,8.7-0.3,13.3-1.1c28.4-4.5,45.9-23.8,53.5-40.7c6.8-15,5.9-32.2,23.9-34.3c0.9-0.1,1.8-0.2,2.7-0.2
					c11.1,0,19.7,8.5,21.2,17.6c1.4,8.2-2.8,19.9-5.8,27.4c-11,27.5-32.8,50.9-58.2,62.8c-16.4,7.7-33.2,11.3-49.5,11.3
					c-64,0-120-54.9-115.8-123.6c2.7-43.8,29-78.3,62.3-95.4c11.5-5.9,26.1-10.2,41.9-11.6C-14.6,306.1-7.5,305.5-1.2,305.5
					 M-1.2,289.6c-6.9,0-14.6,0.6-16.9,0.8c-17.4,1.6-33.9,6.2-47.8,13.3c-19.3,10-36.1,24.8-48.5,42.9
					c-13.2,19.4-20.9,42.2-22.3,65.8c-2.3,36.7,10.4,71.6,35.7,98.5c25.1,26.7,60.1,42,96,42c19.3,0,38.2-4.3,56.3-12.8
					c29-13.6,53.7-40.3,66.2-71.3c4.2-10.4,8.7-23.9,6.8-35.9c-2.2-13.2-11.7-24-23.9-28.6c8.7-5.4,14.7-11.6,16.3-20
					c2.8-15.5-7.9-29.6-15-39c-0.7-0.9-1.3-1.7-1.9-2.5c-22.9-31.2-57.6-50.5-95-53C3,289.7,1,289.6-1.2,289.6L-1.2,289.6z
					 M-60.9,410.3c1.2-7,3.4-13.6,6.7-19.1c7.9-13.2,26.9-27.5,50-27.5c7,0,14,1.4,20.6,4.1c-9.9,5.2-18.9,9.9-27.6,14.4
					c-9.6,5-19.5,10.1-30.4,15.8c-0.9,0.5-1.9,1-2.8,1.4C-49.3,402.1-55.7,405.3-60.9,410.3L-60.9,410.3z M-34.4,470.6
					c9.2-0.4,16.3-4.5,21.6-7.5c0.9-0.5,1.7-1,2.5-1.4C5.6,453.2,20.5,445.4,35,438c5.5-2.9,11.1-5.7,16.8-8.7
					c-0.8,2.2-1.4,4.3-2.1,6.5c-1.1,3.6-2.2,7-3.5,10C43.4,452.1,32,473,4.7,477.4c-3.7,0.6-7.3,0.9-10.8,0.9
					C-17.3,478.2-26.7,475.3-34.4,470.6L-34.4,470.6z"/>
			</g>
			<g>
				<path class="st2" d="M146.7,541.6c-4.1,0-8.1-0.8-12.1-2.3c-12.6-4.8-20.1-17.8-18.7-32.6c1.4-14.5,11.2-25.3,24.9-27.7
					c2.3-0.4,4.5-0.6,6.7-0.6c15.1,0,26.9,9.4,30.2,23.9c2.2,9.7-0.1,19.6-6.2,27.3C165.4,537.3,156.4,541.6,146.7,541.6
					L146.7,541.6z"/>
				<path class="st1" d="M147.5,483.8c13.7,0,22.6,8.9,25,19.7c3.9,17-9,32.8-25.8,32.8c-3.3,0-6.8-0.6-10.3-1.9
					c-22-8.3-20.7-45.6,5.2-50C143.7,484,145.6,483.8,147.5,483.8 M147.5,473.2L147.5,473.2c-2.5,0-5,0.2-7.6,0.7
					c-16.2,2.8-27.7,15.5-29.3,32.4c-0.7,7.7,0.8,15.5,4.2,22.1c4,7.5,10.2,13,17.9,16c4.6,1.7,9.3,2.6,14,2.6
					c11.3,0,21.9-5.1,28.9-14c7.1-8.9,9.8-20.5,7.2-31.8C179.1,484.5,164.9,473.2,147.5,473.2L147.5,473.2z"/>
			</g>
		</g>
	</g>
</g>
</svg>
