<?xml version="1.0" encoding="utf-8"?>
<!-- Generator: Adobe Illustrator 19.0.0, SVG Export Plug-In . SVG Version: 6.00 Build 0)  -->
<svg version="1.1"
	 id="svg2211" inkscape:output_extension="org.inkscape.output.svg.inkscape" inkscape:version="0.45" sodipodi:modified="true" sodipodi:docbase="/home/allan/Desktop" sodipodi:version="0.32" sodipodi:docname="extlogo.svg" xmlns:svg="http://www.w3.org/2000/svg" xmlns:sodipodi="http://sodipodi.sourceforge.net/DTD/sodipodi-0.dtd" xmlns:rdf="http://www.w3.org/1999/02/22-rdf-syntax-ns#" xmlns:dc="http://purl.org/dc/elements/1.1/" xmlns:cc="http://web.resource.org/cc/" xmlns:inkscape="http://www.inkscape.org/namespaces/inkscape"
	 xmlns="http://www.w3.org/2000/svg" xmlns:xlink="http://www.w3.org/1999/xlink" x="0px" y="0px" viewBox="374.8 77.9 758.7 686"
	 style="enable-background:new 374.8 77.9 758.7 686;" xml:space="preserve">
<style type="text/css">
	.st0{fill:#1860A8;}
	.st1{fill:#FFFFFF;stroke:#FFFFFF;}
	.st2{fill:#FFFFFF;}
	.st3{fill:#789030;}
</style>
<sodipodi:namedview  width="1052.3622px" height="744.09449px" inkscape:object-bbox="false" inkscape:object-nodes="false" id="base" inkscape:pageshadow="2" inkscape:grid-points="true" inkscape:guide-points="true" inkscape:object-points="false" inkscape:guide-bbox="true" inkscape:current-layer="svg2211" inkscape:window-y="0" inkscape:window-x="0" inkscape:window-width="1280" inkscape:window-height="969" inkscape:pageopacity="0.0" guidetolerance="10.0" inkscape:cx="566.44019" showgrid="false" inkscape:cy="375.57448" showguides="true" inkscape:zoom="0.92553691" pagecolor="#ffffff" bordercolor="#666666" objecttolerance="50" gridtolerance="10.0" borderopacity="1.0">
	</sodipodi:namedview>
<g id="g3144">
	
		<path id="path2220" inkscape:randomized="0" inkscape:rounded="0.6" inkscape:flatsided="false" sodipodi:arg1="1.6347092" sodipodi:r2="16.449867" sodipodi:r1="12.995395" sodipodi:cy="-8.2660503" sodipodi:arg2="2.0274083" sodipodi:sides="8" sodipodi:type="star" sodipodi:cx="-42.157009" class="st0" d="
		M522.5,305.3c29.2-73.4-46.4-76.2,7.4-132.3c53.7-56.1,56.1,23.1,126.2-7.1s18.6-88.2,94.4-88.1c75.8,0.2,24.1,57.9,94.1,88.5
		c70,30.6,72.7-48.6,126.2,7.7c53.5,56.3-22.1,58.8,6.8,132.3c28.9,73.5,84.2,19.5,84,99s-55.2,25.2-84.4,98.6
		c-29.2,73.4,46.4,76.2-7.4,132.3s-56.1-23.1-126.2,7.1s-18.6,88.2-94.4,88.1c-75.8-0.2-24.1-57.9-94.1-88.5s-72.7,48.6-126.2-7.7
		s22.1-58.8-6.8-132.3c-28.9-73.5-84.2-19.5-84-99C438.3,324.4,493.4,378.7,522.5,305.3z"/>
	
		<path id="path4186" sodipodi:cy="84.715767" sodipodi:type="arc" sodipodi:cx="-211.70436" sodipodi:rx="95.083099" sodipodi:ry="95.083099" class="st1" d="
		M927.4,404.7c0,102.8-79.4,186.2-177.5,186.3s-177.6-83.3-177.7-186.1c0-0.1,0-0.1,0-0.2c0-102.8,79.4-186.2,177.5-186.3
		s177.6,83.3,177.7,186.1C927.4,404.6,927.4,404.6,927.4,404.7z"/>
	
		<path id="path5231" inkscape:randomized="0" inkscape:rounded="0" inkscape:flatsided="true" sodipodi:arg1="0.5154894" sodipodi:r2="46.800766" sodipodi:r1="112.91279" sodipodi:cy="107.30457" sodipodi:arg2="1.562687" sodipodi:sides="3" sodipodi:type="star" sodipodi:cx="-431.81387" class="st2" d="
		M1133.5,760.3l-758.7,3.5l374-372.7L1133.5,760.3z"/>
	
		<path id="path4230" inkscape:randomized="0" inkscape:rounded="0" inkscape:flatsided="true" sodipodi:arg1="0.5154894" sodipodi:r2="46.800766" sodipodi:r1="112.91279" sodipodi:cy="107.30457" sodipodi:arg2="1.562687" sodipodi:sides="3" sodipodi:type="star" sodipodi:cx="-431.81387" class="st3" d="
		M984.5,690.1l-469.3,2.2l231.4-241L984.5,690.1z"/>
</g>
</svg>
