<?xml version="1.0" encoding="iso-8859-1"?><!-- Generator: Adobe Illustrator 16.0.0, SVG Export Plug-In . SVG Version: 6.00 Build 0) --><!DOCTYPE svg PUBLIC "-//W3C//DTD SVG 1.1//EN" "http://www.w3.org/Graphics/SVG/1.1/DTD/svg11.dtd"><svg version="1.1" id="Layer_1" xmlns="http://www.w3.org/2000/svg" xmlns:xlink="http://www.w3.org/1999/xlink" x="0px" y="0px" width="266.893px" height="266.895px" viewBox="0 0 266.893 266.895" style="enable-background:new 0 0 266.893 266.895;" xml:space="preserve"><path id="Blue_1_" style="fill:#485A96;" d="M252.164,266.895c8.134,0,14.729-6.596,14.729-14.73V14.73	c0-8.137-6.596-14.73-14.729-14.73H14.73C6.593,0,0,6.594,0,14.73v237.434c0,8.135,6.593,14.73,14.73,14.73H252.164z"/><path id="f" style="fill:#FFFFFF;" d="M184.152,266.895V163.539h34.692l5.194-40.28h-39.887V97.542	c0-11.662,3.238-19.609,19.962-19.609l21.329-0.01V41.897c-3.689-0.49-16.351-1.587-31.08-1.587	c-30.753,0-51.807,18.771-51.807,53.244v29.705h-34.781v40.28h34.781v103.355H184.152z"/><g></g><g></g><g></g><g></g><g></g><g></g></svg>