<?xml version="1.0" encoding="utf-8"?>
<!-- Generator: Adobe Illustrator 19.0.0, SVG Export Plug-In . SVG Version: 6.00 Build 0)  -->
<svg version="1.1"
	 id="svg2" sodipodi:docname="xchat logo.svg" inkscape:version="0.48.4 r9939" xmlns:inkscape="http://www.inkscape.org/namespaces/inkscape" xmlns:sodipodi="http://sodipodi.sourceforge.net/DTD/sodipodi-0.dtd" xmlns:svg="http://www.w3.org/2000/svg" xmlns:cc="http://creativecommons.org/ns#" xmlns:rdf="http://www.w3.org/1999/02/22-rdf-syntax-ns#" xmlns:dc="http://purl.org/dc/elements/1.1/"
	 xmlns="http://www.w3.org/2000/svg" xmlns:xlink="http://www.w3.org/1999/xlink" x="0px" y="0px" viewBox="83.6 346 126.1 120.1"
	 style="enable-background:new 83.6 346 126.1 120.1;" xml:space="preserve">
<style type="text/css">
	.st0{fill:#74B042;}
</style>
<sodipodi:namedview  inkscape:window-maximized="0" inkscape:window-y="18" inkscape:window-x="0" inkscape:window-height="1004" inkscape:window-width="1278" inkscape:current-layer="layer1" inkscape:document-units="px" inkscape:pageopacity="0.0" inkscape:pageshadow="2" inkscape:cx="448.14133" pagecolor="#ffffff" id="base" inkscape:cy="27.563646" inkscape:zoom="0.9899495" bordercolor="#666666" showgrid="false" borderopacity="1.0">
	</sodipodi:namedview>
<g id="layer1" transform="translate(0,-850.3622)" inkscape:groupmode="layer" inkscape:label="Layer 1">
	<g id="g5991" transform="translate(609.88006,-675.5293)">
		<g id="g4224" transform="translate(-10.101525,233.99825)">
			
				<path id="path4228" sodipodi:nodetypes="sssscssssscsssssssscsssssssssssssssss" inkscape:connector-curvature="0" class="st0" d="
				M-457.7,1757.4c-15.8-2.1-34-12.9-44.2-26.5c-9.8-12.9-14.3-25.6-14.3-40.1c0-12.9,3.8-22.5,13.4-33.9l2.5-3l-2.1,6
				c-1.6,4.6-2.1,8.4-2.1,16c0,12.8,3.1,23.1,10.4,33.9c13,19.4,33.4,31.2,55.9,32.3c17.2,0.8,29.9-3.2,40.7-13l5.7-5.2l-2.3,4.2
				C-406.7,1750.4-429.6,1761-457.7,1757.4L-457.7,1757.4z M-441.2,1717.4c-6.2-1.6-12.3-4.6-18.7-9.4c-7.1-5.3-11.2-10.4-15.6-19.6
				c-2.9-6.1-3.1-7.2-3.1-17.5c0-10.6,0.1-11.2,3.3-17c1.8-3.3,4.4-7.3,5.7-9l2.4-3l-2.1,5.5c-1.7,4.5-2,7.1-1.7,14.2
				c0.4,7.6,0.9,9.6,4.2,16.4c11.9,24,41.1,35.9,63,25.6c3.5-1.6,8.2-4.8,10.4-7c4.6-4.6,4.4-3-0.6,4.6c-4,6-11.1,11.6-18.5,14.5
				C-418.4,1717.9-435.2,1719-441.2,1717.4L-441.2,1717.4z M-429.2,1680.8c-6.8-3.2-12.4-8.4-15.8-14.9c-3.5-6.7-3.7-17-0.4-23.2
				c2.8-5.4,4.4-6.4,3.2-2.1c-2.4,8.4,0.9,17.8,9,25.9c6.7,6.7,14.1,9.9,23.1,9.9c7,0,10.5-1.2,14.4-4.8c3.1-2.9,2.7-1.6-1.2,3.7
				C-402.9,1683.3-418.2,1685.9-429.2,1680.8L-429.2,1680.8z"/>
		</g>
	</g>
</g>
</svg>
