<?xml version="1.0" encoding="utf-8"?>
<!-- Generator: Adobe Illustrator 19.0.0, SVG Export Plug-In . SVG Version: 6.00 Build 0)  -->
<svg version="1.1"
	 id="svg2" xmlns:svg="http://www.w3.org/2000/svg" xmlns:cc="http://creativecommons.org/ns#" xmlns:rdf="http://www.w3.org/1999/02/22-rdf-syntax-ns#" xmlns:dc="http://purl.org/dc/elements/1.1/"
	 xmlns="http://www.w3.org/2000/svg" xmlns:xlink="http://www.w3.org/1999/xlink" x="0px" y="0px" viewBox="-17 368.7 111.7 98.1"
	 style="enable-background:new -17 368.7 111.7 98.1;" xml:space="preserve">
<style type="text/css">
	.st0{fill:#FEA620;}
	.st1{fill:#FFFFFF;}
</style>
<g id="g10" transform="matrix(1.25,0,0,-1.25,-2289.1394,521.88465)">
	<g id="g12" transform="scale(1,-1)">
		<path id="path378" class="st0" d="M1817.7-112.8v29.4c0,21.7,17.8,39.2,39.7,39.2h9.9c21.9,0,39.7-17.6,39.7-39.2v-29.4
			c0-5.4-4.4-9.8-9.9-9.8h-69.5C1822.2-122.6,1817.7-118.2,1817.7-112.8"/>
		<path id="path380" class="st1" d="M1832.6-88.2c0,16.3,13.3,29.4,29.8,29.4c16.4,0,29.8-13.2,29.8-29.4h-14.9
			c0,8.1-6.7,14.7-14.9,14.7c-8.2,0-14.9-6.6-14.9-14.7V-103h-14.9L1832.6-88.2L1832.6-88.2z"/>
		<path id="path382" class="st1" d="M1881-111l-3.5,14.2l14.4,3.7l3.7-14.2L1881-111z"/>
	</g>
</g>
</svg>
