<?xml version="1.0" encoding="utf-8"?>
<!-- Generator: Adobe Illustrator 19.0.0, SVG Export Plug-In . SVG Version: 6.00 Build 0)  -->
<svg version="1.1" id="Calque_1" xmlns="http://www.w3.org/2000/svg" xmlns:xlink="http://www.w3.org/1999/xlink" x="0px" y="0px"
	 viewBox="381.2 367.3 41.5 108.4" style="enable-background:new 381.2 367.3 41.5 108.4;" xml:space="preserve">
<style type="text/css">
	.st0{fill:#414347;}
</style>
<g>
	<path class="st0" d="M422.7,387.4c-0.3-10.1-16.8-20.1-16.8-20.1L403,368l5.4,15.9c0,0-0.1,4.3-4.4,5.6c-4.3,1.2-7.3-2-7.3-2
		l-4.2-16l-3,1.2c0,0-8.2,22.1-7.1,24.9c1.6,7.1,6.2,13.4,6.7,24.1c0.5,10.8-7,35.7-7.7,42.2c-0.7,6.5,5,11.6,10.6,11.8
		c5.6,0.1,11.1-4.6,11.2-9.8c0.2-5.2-0.4-30.3,0.9-41.3C405.4,413.5,423,397.5,422.7,387.4L422.7,387.4z M392.4,470.5
		c-3,0.2-5.6-2.1-5.8-5.1c-0.2-3,2.1-5.6,5.1-5.8c3-0.2,5.6,2.1,5.8,5.1C397.7,467.8,395.4,470.4,392.4,470.5L392.4,470.5z"/>
</g>
</svg>
