<?xml version="1.0" encoding="iso-8859-1"?><!-- Generator: Adobe Illustrator 16.0.0, SVG Export Plug-In . SVG Version: 6.00 Build 0) --><!DOCTYPE svg PUBLIC "-//W3C//DTD SVG 1.1//EN" "http://www.w3.org/Graphics/SVG/1.1/DTD/svg11.dtd"><svg version="1.1" id="Layer_1" xmlns="http://www.w3.org/2000/svg" xmlns:xlink="http://www.w3.org/1999/xlink" x="0px" y="0px" width="1109.5px" height="901.5px" viewBox="-0.25 -0.25 1109.5 901.5" style="enable-background:new -0.25 -0.25 1109.5 901.5;" xml:space="preserve"><path style="fill:#5DA8DC;stroke:#5DA8DC;stroke-width:0.5;" d="M741,0.2V0h26h26l19,3.8c12.667,2.467,24.167,5.7,34.5,9.7	c10.334,4,20.334,8.667,30,14c9.667,5.333,18.434,10.767,26.301,16.3c7.8,5.467,14.8,11.267,21,17.4C929.933,67.4,939.5,69,952.5,66	s27-7.167,42-12.5s29.834-11.333,44.5-18c14.667-6.667,23.601-10.9,26.801-12.7c3.133-1.866,4.8-2.866,5-3l0.199-0.3l1-0.5l1-0.5	l1-0.5l1-0.5l0.2-0.3l0.3-0.2l0.301-0.2l0.199-0.3l1-0.3l1-0.2l-0.199,1.5L1077.5,19l-0.5,1.5l-0.5,1.5l-0.5,1l-0.5,1l-0.5,1.5	c-0.333,1-0.666,2.333-1,4c-0.333,1.667-3.5,8.333-9.5,20S1051,73,1042,85s-17.066,21.066-24.199,27.2	c-7.2,6.2-11.967,10.533-14.301,13c-2.333,2.533-5.166,4.866-8.5,7l-5,3.3l-1,0.5l-1,0.5l-0.199,0.3L987.5,137l-0.3,0.2l-0.2,0.3	l-1,0.5l-1,0.5l-0.199,0.3L984.5,139l-0.3,0.2l-0.2,0.3l-0.199,0.3L983.5,140l-0.3,0.2l-0.2,0.3h2.5h2.5l28-6	c18.667-4,36.5-8.833,53.5-14.5s26-8.667,27-9s2-0.667,3-1l1.5-0.5l1-0.5l1-0.5l1-0.5l1-0.5l2-0.3l2-0.2v1v1l-0.5,0.2l-0.5,0.3	l-0.199,0.3l-0.301,0.2l-0.3,0.2l-0.2,0.3l-0.199,0.3l-0.301,0.2l-0.3,0.2l-0.2,0.3l-0.199,0.3l-0.301,0.2l-0.5,1l-0.5,1l-0.3,0.2	c-0.133,0.2-4.366,5.866-12.7,17c-8.333,11.2-12.833,16.866-13.5,17c-0.666,0.2-1.6,1.2-2.8,3c-1.133,1.866-8.2,9.3-21.2,22.3	s-25.732,24.566-38.199,34.7c-12.533,10.2-18.867,22.733-19,37.6c-0.2,14.8-0.967,31.534-2.301,50.2	c-1.333,18.667-3.833,38.833-7.5,60.5c-3.666,21.667-9.333,46.167-17,73.5c-7.666,27.333-17,54-28,80s-22.5,49.333-34.5,70	s-23,38.167-33,52.5S854.334,660.333,844,673c-10.333,12.667-23.399,26.934-39.199,42.8c-15.867,15.8-24.533,24.467-26,26	c-1.533,1.467-8.066,6.934-19.601,16.4c-11.466,9.533-23.8,19.066-37,28.6c-13.133,9.467-25.2,17.367-36.2,23.7	s-24.266,13.566-39.8,21.7C630.734,840.4,614,848,596,855s-37,13.5-57,19.5s-39.333,10.667-58,14	c-18.666,3.333-39.833,6.167-63.5,8.5l-35.5,3.5v0.3v0.2h-32.5H317v-0.2v-0.3l-8.5-0.5c-5.666-0.333-10.333-0.667-14-1	c-3.666-0.333-17.5-2.167-41.5-5.5s-42.833-6.667-56.5-10c-13.666-3.333-34-9.667-61-19s-50.1-18.767-69.3-28.3	c-19.133-9.467-31.133-15.467-36-18c-4.8-2.467-10.2-5.533-16.2-9.2l-9-5.5l-0.199-0.3L4.5,803l-0.3-0.2L4,802.5L3,802l-1-0.5	l-0.199-0.3L1.5,801l-0.3-0.2L1,800.5l-0.199-0.3L0.5,800H0.2H0v-1v-1l1,0.2l1,0.3l4.5,0.5c3,0.333,11.167,0.833,24.5,1.5	c13.334,0.667,27.5,0.667,42.5,0s30.334-2.167,46-4.5c15.667-2.333,34.167-6.333,55.5-12c21.334-5.667,40.934-12.4,58.801-20.2	c17.8-7.866,30.466-13.733,38-17.6c7.466-3.8,18.866-10.867,34.199-21.2l23-15.5l0.2-0.3l0.3-0.2l0.301-0.2l0.199-0.3l0.2-0.3	l0.3-0.2l0.301-0.2l0.199-0.3l1-0.3l1-0.2l0.2-1l0.3-1l0.301-0.2l0.199-0.3l-8-0.5c-5.333-0.333-10.5-0.667-15.5-1	s-12.833-1.833-23.5-4.5c-10.666-2.667-22.166-6.667-34.5-12c-12.333-5.333-24.333-11.667-36-19	c-11.666-7.333-20.1-13.434-25.3-18.3c-5.133-4.801-11.8-11.6-20-20.4c-8.133-8.866-15.2-17.967-21.2-27.3	s-11.733-20.101-17.199-32.3L124.5,551l-0.5-1.5l-0.5-1.5l-0.3-1l-0.2-1l1.5,0.2l1.5,0.3l11,1.5c7.334,1,18.834,1.333,34.5,1	c15.667-0.333,26.5-1,32.5-2s9.667-1.667,11-2l2-0.5l2.5-0.5l2.5-0.5l0.2-0.3l0.3-0.2l0.301-0.2l0.199-0.3l-2-0.5l-2-0.5l-2-0.5	l-2-0.5l-2-0.5c-1.333-0.333-3.666-1-7-2c-3.333-1-12.333-4.667-27-11c-14.666-6.333-26.333-12.5-35-18.5	c-8.666-6-16.933-12.566-24.8-19.7c-7.8-7.2-16.366-16.467-25.7-27.8c-9.333-11.333-17.666-24.5-25-39.5	c-7.333-15-12.833-29.333-16.5-43c-3.666-13.667-6.066-27.5-7.199-41.5L43,316l1,0.2l1,0.3l1,0.5l1,0.5l1,0.5l1,0.5l15.5,7	c10.334,4.667,23.167,8.667,38.5,12c15.334,3.333,24.5,5.167,27.5,5.5l4.5,0.5h4.5h4.5l-0.199-0.3L143.5,343l-0.3-0.2l-0.2-0.3	l-0.199-0.3L142.5,342l-0.3-0.2l-0.2-0.3l-1-0.5l-1-0.5l-0.199-0.3L139.5,340l-0.3-0.2l-0.2-0.3l-1-0.5l-1-0.5l-0.199-0.3	c-0.2-0.134-3.067-2.267-8.601-6.4c-5.467-4.2-11.2-9.633-17.2-16.3s-12-13.667-18-21c-6-7.333-11.333-15.167-16-23.5	c-4.666-8.333-9.6-18.934-14.8-31.8c-5.133-12.8-9.033-25.7-11.7-38.7c-2.666-13-4.166-25.833-4.5-38.5c-0.333-12.667,0-23.5,1-32.5	s3-19.167,6-30.5s7.334-23.333,13-36l8.5-19l0.5-1.5l0.5-1.5l0.301-0.2L76,40.5l0.2-0.3l0.3-0.2l0.301,0.2L77,40.5l0.2,0.3l0.3,0.2	l0.301,0.2L78,41.5l0.2,0.3l0.3,0.2l0.5,1l0.5,1l0.301,0.2L80,44.5l13.5,15c9,10,19.667,21.167,32,33.5	c12.334,12.333,19.167,18.733,20.5,19.2c1.334,0.533,3,2.066,5,4.6c2,2.467,8.667,8.367,20,17.7	c11.334,9.333,26.167,20.167,44.5,32.5c18.334,12.333,38.667,24.5,61,36.5c22.334,12,46.334,22.833,72,32.5	c25.667,9.667,43.667,16,54,19c10.334,3,28,6.833,53,11.5s43.834,7.667,56.5,9c12.667,1.333,21.334,2.1,26,2.3l7,0.2l-0.199-1.5	L544.5,275l-2-12.5c-1.333-8.333-2-20-2-35s1.167-28.833,3.5-41.5c2.334-12.667,5.834-25.5,10.5-38.5	c4.667-13,9.234-23.434,13.7-31.3c4.534-7.8,10.467-16.7,17.8-26.7c7.334-10,16.834-20.333,28.5-31c11.667-10.667,25-20.167,40-28.5	s28.834-14.667,41.5-19c12.667-4.333,23.334-7.167,32-8.5C736.667,1.167,741,0.4,741,0.2z"/><path style="fill:#FFFFFF;stroke:#FFFFFF;stroke-width:0.5;" d="M0,399V0h370.5H741v0.2c0,0.2-4.333,0.966-13,2.3	c-8.666,1.333-19.333,4.167-32,8.5c-12.666,4.333-26.5,10.667-41.5,19s-28.333,17.833-40,28.5c-11.666,10.667-21.166,21-28.5,31	c-7.333,10-13.266,18.9-17.8,26.7c-4.466,7.866-9.033,18.3-13.7,31.3c-4.666,13-8.166,25.833-10.5,38.5	c-2.333,12.667-3.5,26.5-3.5,41.5s0.667,26.667,2,35l2,12.5l0.301,1.5L545,278l-7-0.2c-4.666-0.2-13.333-0.966-26-2.3	c-12.666-1.333-31.5-4.333-56.5-9s-42.666-8.5-53-11.5c-10.333-3-28.333-9.333-54-19c-25.666-9.667-49.666-20.5-72-32.5	c-22.333-12-42.666-24.167-61-36.5c-18.333-12.333-33.166-23.167-44.5-32.5c-11.333-9.333-18-15.233-20-17.7	c-2-2.533-3.666-4.066-5-4.6c-1.333-0.467-8.166-6.867-20.5-19.2c-12.333-12.333-23-23.5-32-33.5L80,44.5l-0.199-0.3L79.5,44L79,43	l-0.5-1l-0.3-0.2L78,41.5l-0.199-0.3L77.5,41l-0.3-0.2L77,40.5l-0.199-0.3L76.5,40l-0.3,0.2L76,40.5l-0.199,0.3L75.5,41L75,42.5	L74.5,44L66,63c-5.666,12.667-10,24.667-13,36s-5,21.5-6,30.5s-1.333,19.833-1,32.5c0.334,12.667,1.834,25.5,4.5,38.5	c2.667,13,6.567,25.9,11.7,38.7c5.2,12.866,10.134,23.466,14.8,31.8c4.667,8.333,10,16.167,16,23.5c6,7.333,12,14.333,18,21	s11.733,12.1,17.2,16.3c5.533,4.134,8.4,6.267,8.601,6.4l0.199,0.3l1,0.5l1,0.5l0.2,0.3l0.3,0.2l0.301,0.2l0.199,0.3l1,0.5l1,0.5	l0.2,0.3l0.3,0.2l0.301,0.2l0.199,0.3l0.2,0.3l0.3,0.2l0.301,0.2l0.199,0.3h-4.5H135l-4.5-0.5c-3-0.333-12.166-2.167-27.5-5.5	c-15.333-3.333-28.166-7.333-38.5-12l-15.5-7l-1-0.5l-1-0.5l-1-0.5l-1-0.5l-1-0.3l-1-0.2l1.801,21c1.133,14,3.533,27.833,7.199,41.5	c3.667,13.667,9.167,28,16.5,43c7.334,15,15.667,28.167,25,39.5c9.334,11.333,17.9,20.6,25.7,27.8	c7.867,7.134,16.134,13.7,24.8,19.7c8.667,6,20.334,12.167,35,18.5c14.667,6.333,23.667,10,27,11c3.334,1,5.667,1.667,7,2l2,0.5	l2,0.5l2,0.5l2,0.5l2,0.5l-0.199,0.3L222.5,543l-0.3,0.2l-0.2,0.3l-2.5,0.5l-2.5,0.5l-2,0.5c-1.333,0.333-5,1-11,2	s-16.833,1.667-32.5,2c-15.666,0.333-27.166,0-34.5-1l-11-1.5l-1.5-0.3L123,546l0.2,1l0.3,1l0.5,1.5l0.5,1.5l8.301,18.2	C138.266,581.399,144,592.167,150,601.5s13.067,18.434,21.2,27.3c8.2,8.801,14.867,15.6,20,20.4c5.2,4.866,13.634,10.967,25.3,18.3	c11.667,7.333,23.667,13.667,36,19c12.334,5.333,23.834,9.333,34.5,12c10.667,2.667,18.5,4.167,23.5,4.5s10.167,0.667,15.5,1l8,0.5	l-0.199,0.3L333.5,705l-0.3,1l-0.2,1l-1,0.2l-1,0.3l-0.199,0.3L330.5,708l-0.3,0.2l-0.2,0.3l-0.199,0.3L329.5,709l-0.3,0.2l-0.2,0.3	L306,725c-15.333,10.333-26.733,17.4-34.199,21.2c-7.534,3.866-20.2,9.733-38,17.6c-17.867,7.8-37.467,14.533-58.801,20.2	c-21.333,5.667-39.833,9.667-55.5,12c-15.666,2.333-31,3.833-46,4.5s-29.166,0.667-42.5,0c-13.333-0.667-21.5-1.167-24.5-1.5	L2,798.5l-1-0.3L0,798V399z"/><path style="fill:#FFFFFF;stroke:#FFFFFF;stroke-width:0.5;" d="M1107.801,109.8l0.199-0.3l0.5-0.3l0.5-0.2v396v396H745.5H382v-0.2	v-0.3l35.5-3.5c23.667-2.333,44.834-5.167,63.5-8.5c18.667-3.333,38-8,58-14s39-12.5,57-19.5s34.734-14.6,50.2-22.8	c15.534-8.134,28.8-15.367,39.8-21.7s23.067-14.233,36.2-23.7c13.2-9.533,25.534-19.066,37-28.6	c11.534-9.467,18.067-14.934,19.601-16.4c1.467-1.533,10.133-10.2,26-26c15.8-15.866,28.866-30.133,39.199-42.8	c10.334-12.667,20.5-26.167,30.5-40.5s21-31.833,33-52.5s23.5-44,34.5-70s20.334-52.667,28-80c7.667-27.333,13.334-51.833,17-73.5	c3.667-21.667,6.167-41.833,7.5-60.5c1.334-18.667,2.101-35.4,2.301-50.2c0.133-14.866,6.467-27.4,19-37.6	c12.467-10.134,25.199-21.7,38.199-34.7s20.067-20.434,21.2-22.3c1.2-1.8,2.134-2.8,2.8-3c0.667-0.134,5.167-5.8,13.5-17	c8.334-11.134,12.567-16.8,12.7-17l0.3-0.2l0.5-1l0.5-1l0.301-0.2l0.199-0.3l0.2-0.3l0.3-0.2l0.301-0.2l0.199-0.3l0.2-0.3l0.3-0.2	L1107.801,109.8z"/><path style="fill:#FFFFFF;stroke:#FFFFFF;stroke-width:0.5;" d="M812,3.8L793,0h158h158v53.5V107l-2,0.2l-2,0.3l-1,0.5l-1,0.5	l-1,0.5l-1,0.5l-1.5,0.5c-1,0.333-2,0.667-3,1s-10,3.333-27,9s-34.833,10.5-53.5,14.5l-28,6h-2.5H983l0.2-0.3l0.3-0.2l0.301-0.2	l0.199-0.3l0.2-0.3l0.3-0.2l0.301-0.2l0.199-0.3l1-0.5l1-0.5l0.2-0.3l0.3-0.2l0.301-0.2l0.199-0.3l1-0.5l1-0.5l5-3.3	c3.334-2.134,6.167-4.467,8.5-7c2.334-2.467,7.101-6.8,14.301-13C1024.933,106.066,1033,97,1042,85s16.5-23.833,22.5-35.5	s9.167-18.333,9.5-20c0.334-1.667,0.667-3,1-4l0.5-1.5l0.5-1l0.5-1l0.5-1.5l0.5-1.5l0.301-1.5L1078,16l-1,0.2l-1,0.3l-0.199,0.3	L1075.5,17l-0.3,0.2l-0.2,0.3l-1,0.5l-1,0.5l-1,0.5l-1,0.5l-0.199,0.3c-0.2,0.134-1.867,1.134-5,3	c-3.2,1.8-12.134,6.034-26.801,12.7c-14.666,6.667-29.5,12.667-44.5,18s-29,9.5-42,12.5s-22.566,1.4-28.699-4.8	c-6.2-6.134-13.2-11.934-21-17.4c-7.867-5.533-16.634-10.966-26.301-16.3c-9.666-5.333-19.666-10-30-14	C836.167,9.5,824.667,6.267,812,3.8z"/><path style="fill:#FFFFFF;stroke:#FFFFFF;stroke-width:0.5;" d="M0,850.5V800h0.2h0.3l0.301,0.2L1,800.5l0.2,0.3l0.3,0.2l0.301,0.2	L2,801.5l1,0.5l1,0.5l0.2,0.3l0.3,0.2l0.301,0.2L5,803.5l9,5.5c6,3.667,11.4,6.733,16.2,9.2c4.867,2.533,16.867,8.533,36,18	c19.2,9.533,42.3,18.967,69.3,28.3s47.334,15.667,61,19c13.667,3.333,32.5,6.667,56.5,10s37.834,5.167,41.5,5.5	c3.667,0.333,8.334,0.667,14,1l8.5,0.5v0.3v0.2H158.5H0V850.5z"/></svg>